<svg width="1200" height="630" version="1.1" viewBox="0 0 317.5 166.69" xmlns="http://www.w3.org/2000/svg"><rect x="-.0023809" width="317.5" height="166.69" fill="#f9f9f9" stroke-linecap="round" stroke-width=".52918"/><path d="m43.599 42.787v84.893h22.016v-28.169h6.4386l0.20268 2.0357c1.3207-1.6337 3.0533-2.4502 5.2044-2.4502 2.723 0 4.8446 1.0155 6.3561 3.0306 1.5112 2.0014 2.266 4.7502 2.266 8.2629v0.33155c0 3.4309-0.77844 6.1698-2.3305 8.2256-1.5385 2.0422-3.6177 3.0674-6.2453 3.0674-2.0286 0-3.704-0.74511-5.011-2.2292v7.8941h38.513c-0.25276-0.22692-0.5492-0.43013-0.75544-0.68164l2.8832-4.0438c1.2799 1.5112 2.9696 2.266 5.0662 2.266 3.0497 0 4.5689-1.5663 4.5689-4.6978v-0.69091c-1.3207 1.4567-2.9868 2.1831-5.0016 2.1831-2.6957 0-4.87-1.03-6.5311-3.0859-1.661-2.0694-2.4963-4.8323-2.4963-8.2903v-0.24866c0-2.2328 0.37024-4.1983 1.1054-5.9137 0.73512-1.7155 1.7844-3.0444 3.1595-3.9702 1.3751-0.93941 2.9748-1.4093 4.7993-1.4093 2.3009 0 4.1045 0.77844 5.3978 2.3305l0.23958-1.916h5.0478v-5.61c-0.0677 0.11943-0.0927 0.26239-0.16578 0.37772-0.89858 1.4432-2.1994 2.5445-3.9149 3.3069-1.7155 0.77594-3.709 1.1699-5.9689 1.1699-1.6202 0-3.1914-0.30856-4.7163-0.92122-1.5112-0.61267-2.6695-1.4146-3.4727-2.395l2.8832-4.0346c1.2799 1.5112 2.9696 2.266 5.0662 2.266 3.0497 0 4.5689-1.5663 4.5689-4.6978v-0.70001c-1.3207 1.4569-2.9868 2.1923-5.0016 2.1923-2.6957 0-4.87-1.03-6.5311-3.0859-1.661-2.0694-2.4963-4.8323-2.4963-8.2903v-0.24866c0-2.2328 0.37024-4.2075 1.1054-5.9232 0.7353-1.7157 1.7844-3.0351 3.1595-3.9609 1.3751-0.9394 2.9748-1.4093 4.7993-1.4093 2.3009 0 4.1045 0.77844 5.3978 2.3305l0.23958-1.9252h5.0478v-25.166h-84.893zm31.715 24.76c2.9136 0 5.2492 0.6599 7.0192 1.9804 1.7699 1.3207 2.6621 3.0533 2.6621 5.2044h-6.9084c0-1.7699-0.92586-2.6529-2.7911-2.6529-0.72158 0-1.3337 0.20874-1.8239 0.61712-0.4902 0.39483-0.7369 0.89324-0.7369 1.4923 0 0.61266 0.30375 1.1018 0.90268 1.4831 0.59911 0.38129 1.5485 0.69448 2.8556 0.93958 1.3207 0.2451 2.4788 0.54386 3.4727 0.88432 3.322 1.1437 4.9832 3.1896 4.9832 6.1439 0 2.015-0.89252 3.6527-2.6897 4.9191-1.7835 1.2661-4.1 1.9068-6.9456 1.9068-1.8924 0-3.5823-0.34172-5.0662-1.0225-1.484-0.68076-2.6422-1.6111-3.4727-2.7819-0.83049-1.1708-1.2435-2.4004-1.2435-3.6938h6.4297c0.02674 1.021 0.36899 1.7711 1.0225 2.2476 0.65348 0.46293 1.4936 0.69092 2.5147 0.69092 0.9394 0 1.6373-0.18984 2.1002-0.57113 0.47648-0.38129 0.71854-0.87951 0.71854-1.4924 0-0.58539-0.30838-1.0554-0.92122-1.4093-0.61266-0.35401-1.7758-0.71498-3.4911-1.0961-1.7155-0.38129-3.13-0.87951-4.2465-1.4923-1.1164-0.62621-1.9754-1.3811-2.5608-2.266-0.58539-0.88504-0.87505-1.9053-0.87505-3.049 0-2.0286 0.84012-3.6948 2.5147-5.0016 1.6745-1.3207 3.8676-1.9805 6.5768-1.9805zm10.943 0.40535h7.2678l3.4359 13.909 3.4912-13.909h7.2494l-7.2126 22.098h-7.0192l-7.2126-22.098zm33.309 4.9007c-1.2253 0-2.1888 0.55526-2.8832 1.6581-0.6943 1.0891-1.0408 2.6793-1.0408 4.7625 0 1.8107 0.34172 3.2398 1.0225 4.3018 0.68076 1.0483 1.6394 1.5751 2.8648 1.5751 1.484 0 2.5617-0.4984 3.2424-1.4924v-9.2943c-0.66703-1.0075-1.7351-1.5107-3.2056-1.5107zm-26.096 26.658h7.0192l7.2126 22.098h-7.2494l-3.4912-13.909-3.4359 13.909h-7.2678l7.2126-22.098zm-17.704 4.9007c-1.6337 0-2.7255 0.58842-3.2701 1.7594v8.6958c0.59912 1.2253 1.7096 1.8423 3.3161 1.8423 2.192 0 3.3218-1.8985 3.3898-5.6836v-0.73691c0-3.921-1.1487-5.8769-3.4359-5.8769zm43.8 0c-1.2253 0-2.1888 0.546-2.8832 1.6489-0.6943 1.0891-1.0408 2.6793-1.0408 4.7625 0 1.8108 0.34172 3.249 1.0225 4.311 0.68076 1.0483 1.6394 1.5751 2.8648 1.5751 1.484 0 2.5617-0.4984 3.2424-1.4924v-9.2944c-0.66703-1.0075-1.7351-1.5107-3.2056-1.5107zm8.926 21.048c-0.0677 0.11943-0.0927 0.26239-0.16577 0.37772-0.43423 0.69733-0.97024 1.3043-1.5936 1.8423h1.7594v-2.22z" fill="#654ef0" stroke-width="4.7163"/><g stroke-width=".26458" aria-label="svg2png-wasm"><path d="m154.7 94.999q-1.3144 0-2.267-0.47625-0.9525-0.4953-1.6764-1.4859l0.8001-0.62865q0.6477 0.85725 1.4097 1.2573 0.78105 0.40005 1.7907 0.40005 1.2192 0 1.8669-0.51435t0.6477-1.4668q0-0.85725-0.51435-1.3335t-1.6383-0.62865l-0.8382-0.13335q-1.505-0.20955-2.3241-0.8763-0.81915-0.6858-0.81915-2.0002 0-1.3716 0.97155-2.0955 0.97155-0.74295 2.5146-0.74295 1.2002 0 2.0193 0.4191 0.8382 0.4191 1.4668 1.162l-0.74295 0.6477q-1.0287-1.2954-2.8004-1.2954-1.124 0-1.7526 0.4953-0.62865 0.47625-0.62865 1.3526t0.5334 1.3144 1.7145 0.62865l0.8382 0.1143q1.543 0.2286 2.286 0.93345 0.762 0.70485 0.762 1.924 0 1.4288-0.97155 2.2288t-2.648 0.8001z"/><path d="m164.65 94.751h-1.2764l-3.6766-10.23h1.0858l3.2004 9.0678h0.0762l3.2194-9.0678h1.0478z"/><path d="m173.86 98.999q-4.4196 0-4.4196-2.5718 0-1.6383 1.7716-2.1717v-0.1524q-0.9525-0.40005-0.9525-1.4097 0-1.2764 1.7336-1.7526v-0.0762q-0.89535-0.40005-1.3906-1.2002-0.4953-0.81915-0.4953-1.905 0-1.5621 1.0096-2.5146t2.686-0.9525q1.2764 0 2.0764 0.4953v-0.5334q0-1.0096 0.9144-1.0096h1.7716v0.9525h-2.0764v1.0287q1.0478 0.9906 1.0478 2.5336 0 1.5621-1.0287 2.5336-1.0096 0.9525-2.686 0.9525-0.43815 0-1.0668-0.13335-1.5621 0.43815-1.5621 1.3526t1.6764 0.9144h2.4003q1.7907 0 2.648 0.6858 0.85725 0.66675 0.85725 1.8859 0 3.048-4.9149 3.048zm-0.0381-8.6296q1.2002 0 1.8669-0.6096 0.6858-0.6096 0.6858-1.6954v-0.62865q0-1.0668-0.6858-1.6574-0.66675-0.6096-1.8669-0.6096t-1.886 0.6096q-0.66675 0.59055-0.66675 1.6574v0.62865q0 1.0858 0.66675 1.6954 0.6858 0.6096 1.886 0.6096zm0.62865 7.7343q1.5621 0 2.4194-0.51435t0.85725-1.5621q0-0.8001-0.5715-1.2192-0.55245-0.4191-1.886-0.4191h-3.3147q-1.4859 0.4953-1.4859 1.8097 0 0.85725 0.6858 1.3716 0.70485 0.5334 2.0384 0.5334z"/><path d="m180.69 94.751v-1.162l4.934-4.7434q2.2098-2.1526 2.2098-4.0386v-0.40005q0-1.2954-0.762-2.0764-0.74295-0.78105-2.1717-0.78105-2.4956 0-3.2766 2.5718l-1.0096-0.381q0.43815-1.4288 1.505-2.305 1.0668-0.89535 2.8384-0.89535 1.924 0 3.0099 1.0858t1.0858 2.8956q0 1.4097-0.6858 2.5908t-2.0574 2.4574l-4.3624 4.172h7.6962v1.0096z"/><path d="m192.98 98.751v-14.23h1.1049v1.6192h0.0572q0.381-0.8763 1.1811-1.3716t1.9622-0.4953q1.9622 0 3.0861 1.4288 1.124 1.4097 1.124 3.9243 0 2.5336-1.124 3.9624-1.124 1.4097-3.0861 1.4097-1.143 0-1.9431-0.4953-0.78105-0.4953-1.2002-1.3716h-0.0572v5.6197zm4.0576-4.7434q1.524 0 2.4003-0.9906t0.8763-2.667v-1.4288q0-1.6764-0.8763-2.667t-2.4003-0.9906q-1.2192 0-2.0955 0.6477-0.85725 0.6477-0.85725 1.6574v4.0767q0 1.0668 0.85725 1.7145t2.0955 0.6477z"/><path d="m204.44 94.751v-10.23h1.0858v1.6002h0.0762q0.36195-0.8382 1.1049-1.3335t1.924-0.4953q1.6383 0 2.5527 1.0096t0.9144 2.8766v6.5722h-1.0858v-6.3627q0-3.1242-2.667-3.1242-1.1811 0-2.0002 0.6096-0.81915 0.59055-0.81915 1.6954v7.1818z"/><path d="m219.18 98.999q-4.4196 0-4.4196-2.5718 0-1.6383 1.7716-2.1717v-0.1524q-0.9525-0.40005-0.9525-1.4097 0-1.2764 1.7336-1.7526v-0.0762q-0.89535-0.40005-1.3906-1.2002-0.4953-0.81915-0.4953-1.905 0-1.5621 1.0096-2.5146t2.686-0.9525q1.2764 0 2.0764 0.4953v-0.5334q0-1.0096 0.9144-1.0096h1.7716v0.9525h-2.0764v1.0287q1.0478 0.9906 1.0478 2.5336 0 1.5621-1.0287 2.5336-1.0096 0.9525-2.686 0.9525-0.43815 0-1.0668-0.13335-1.5621 0.43815-1.5621 1.3526t1.6764 0.9144h2.4003q1.7907 0 2.648 0.6858 0.85725 0.66675 0.85725 1.8859 0 3.048-4.9149 3.048zm-0.0381-8.6296q1.2002 0 1.8669-0.6096 0.6858-0.6096 0.6858-1.6954v-0.62865q0-1.0668-0.6858-1.6574-0.66675-0.6096-1.8669-0.6096t-1.886 0.6096q-0.66675 0.59055-0.66675 1.6574v0.62865q0 1.0858 0.66675 1.6954 0.6858 0.6096 1.886 0.6096zm0.62865 7.7343q1.5621 0 2.4194-0.51435t0.85725-1.5621q0-0.8001-0.5715-1.2192-0.55245-0.4191-1.886-0.4191h-3.3147q-1.4859 0.4953-1.4859 1.8097 0 0.85725 0.6858 1.3716 0.70485 0.5334 2.0384 0.5334z"/><path d="m230.79 89.245h-4.972v-1.143h4.972z"/><path d="m237.14 94.751h-1.3144l-2.8956-10.23h1.0668l2.4574 9.125 0.0381 0.1143h0.0381l0.0381-0.1143 2.7051-9.125h0.97155l2.7622 9.144 0.019 0.09525h0.0572l0.019-0.1143 2.4765-9.125h1.0287l-2.8956 10.23h-1.3335l-2.5908-8.6106-0.019-0.0762h-0.0381l-0.019 0.0762z"/><path d="m251.47 94.999q-1.6002 0-2.4955-0.8001-0.8763-0.8001-0.8763-2.2288 0-2.9528 4.1529-2.9528h2.3812v-1.2002q0-2.6098-2.648-2.6098-1.9622 0-2.8194 1.6954l-0.70485-0.5715q0.4572-0.9525 1.3525-1.505 0.89535-0.55245 2.2098-0.55245 1.7716 0 2.7242 0.89535t0.9525 2.5146v6.115h1.3906v0.9525h-1.0858q-0.6477 0-0.9906-0.32385-0.32385-0.32385-0.32385-0.9144v-0.40005h-0.0762q-0.36195 0.89535-1.162 1.3906t-1.9812 0.4953zm0.1524-0.93345q1.2954 0 2.1526-0.62865 0.85725-0.6477 0.85725-1.6764v-1.924h-2.4194q-1.505 0-2.2479 0.4953-0.72389 0.47625-0.72389 1.3716v0.4953q0 0.89535 0.64769 1.3906 0.6477 0.47625 1.7336 0.47625z"/><path d="m262.42 94.999q-1.3144 0-2.267-0.47625-0.9525-0.4953-1.6764-1.4859l0.8001-0.62865q0.6477 0.85725 1.4097 1.2573 0.78105 0.40005 1.7907 0.40005 1.2192 0 1.8669-0.51435t0.6477-1.4668q0-0.85725-0.51435-1.3335t-1.6383-0.62865l-0.8382-0.13335q-1.505-0.20955-2.3241-0.8763-0.81915-0.6858-0.81915-2.0002 0-1.3716 0.97155-2.0955 0.97155-0.74295 2.5146-0.74295 1.2002 0 2.0193 0.4191 0.8382 0.4191 1.4668 1.162l-0.74295 0.6477q-1.0287-1.2954-2.8004-1.2954-1.124 0-1.7526 0.4953-0.62865 0.47625-0.62865 1.3526t0.5334 1.3144 1.7145 0.62865l0.8382 0.1143q1.543 0.2286 2.286 0.93345 0.762 0.70485 0.762 1.924 0 1.4288-0.97155 2.2288t-2.648 0.8001z"/><path d="m269.07 94.751v-10.23h1.0858v1.6002h0.0762q0.78105-1.8288 2.8956-1.8288 1.162 0 1.9812 0.5334 0.8382 0.5334 1.2002 1.6192h0.0572q0.3048-0.97155 1.1049-1.5621 0.81915-0.59055 2.1146-0.59055 1.6383 0 2.5146 1.0096 0.8763 0.9906 0.8763 2.8766v6.5722h-1.0668v-6.3627q0-1.5812-0.66675-2.3432-0.6477-0.78105-1.9622-0.78105-1.143 0-1.924 0.6096-0.78105 0.59055-0.78105 1.7145v7.1628h-1.0858v-6.3627q0-3.1242-2.6098-3.1242-1.143 0-1.9431 0.6096-0.78105 0.59055-0.78105 1.6954v7.1818z"/></g></svg>
