<svg width="24" height="24" version="1.1" viewBox="0 0 6.35 6.35" xmlns="http://www.w3.org/2000/svg">
<style>@keyframes a {from{opacity:0}to{opacity:1}}path{animation:2s ease .5s a}</style>
<path transform="scale(.26458)" d="m3 3v18h4.668v-5.9727h1.3652l0.042969 0.43164c0.28002-0.34641 0.6474-0.51953 1.1035-0.51953 0.57736 0 1.0272 0.21533 1.3477 0.64258 0.32043 0.42436 0.48047 1.0072 0.48047 1.752v0.070313c0 0.72747-0.16505 1.3082-0.49414 1.7441-0.32621 0.43302-0.76707 0.65039-1.3242 0.65039-0.43013 0-0.78537-0.158-1.0625-0.47266v1.6738h8.166c-0.053598-0.04812-0.11646-0.091206-0.16016-0.14453l0.61133-0.85742c0.27136 0.32043 0.62965 0.48047 1.0742 0.48047 0.64664 0 0.96875-0.33213 0.96875-0.99609v-0.14648c-0.28002 0.30888-0.6333 0.46289-1.0605 0.46289-0.57158 0-1.0326-0.21839-1.3848-0.6543-0.35219-0.43879-0.5293-1.0246-0.5293-1.7578v-0.052735c0-0.47343 0.078487-0.89017 0.23438-1.2539 0.15588-0.36374 0.37836-0.6455 0.66992-0.8418 0.29156-0.19919 0.63075-0.29883 1.0176-0.29883 0.48787 0 0.87029 0.16505 1.1445 0.49414l0.050782-0.40625h1.0703v-1.1895c-0.014352 0.025164-0.019557 0.055631-0.035156 0.080078-0.19053 0.306-0.46634 0.53951-0.83008 0.70117-0.36374 0.16454-0.78642 0.24805-1.2656 0.24805-0.34353 0-0.67668-0.065408-1-0.19531-0.32043-0.1299-0.56601-0.29996-0.73633-0.50781l0.61133-0.85547c0.27136 0.32043 0.62965 0.48047 1.0742 0.48047 0.64664 0 0.96875-0.33213 0.96875-0.99609v-0.14844c-0.28002 0.30889-0.6333 0.46484-1.0605 0.46484-0.57158 0-1.0326-0.21839-1.3848-0.6543-0.35219-0.43879-0.5293-1.0246-0.5293-1.7578v-0.052735c0-0.47343 0.07849-0.89212 0.23438-1.2559s0.37836-0.64354 0.66992-0.83984c0.29156-0.19919 0.63075-0.29883 1.0176-0.29883 0.48787 0 0.87029 0.16505 1.1445 0.49414l0.050782-0.4082h1.0703v-5.3359h-18zm6.7246 5.25c0.61777 0 1.113 0.1399 1.4883 0.41992 0.37528 0.28002 0.56445 0.6474 0.56445 1.1035h-1.4648c0-0.37528-0.19631-0.5625-0.5918-0.5625-0.153 0-0.2828 0.044255-0.38672 0.13086-0.10392 0.083716-0.15625 0.18939-0.15625 0.31641 0 0.1299 0.064389 0.23362 0.19141 0.31445 0.12702 0.080829 0.32834 0.14726 0.60547 0.19922 0.28002 0.051961 0.52559 0.11533 0.73633 0.1875 0.70437 0.24249 1.0566 0.6763 1.0566 1.3027 0 0.42724-0.18926 0.7745-0.57031 1.043-0.37817 0.26847-0.86932 0.4043-1.4727 0.4043-0.40126 0-0.75956-0.072457-1.0742-0.2168-0.31466-0.14434-0.56023-0.34158-0.73633-0.58984-0.17609-0.24826-0.26367-0.50896-0.26367-0.7832h1.3633c0.0057701 0.21651 0.078227 0.37552 0.2168 0.47656 0.13856 0.098152 0.31669 0.14648 0.5332 0.14648 0.19919 0 0.34716-0.040265 0.44531-0.12109 0.10104-0.080831 0.15234-0.1865 0.15234-0.31641 0-0.12413-0.065407-0.22377-0.19531-0.29883-0.12991-0.075056-0.3765-0.15159-0.74023-0.23242-0.36374-0.08083-0.66367-0.1865-0.90039-0.31641-0.23672-0.13279-0.41884-0.29283-0.54297-0.48047-0.12413-0.18764-0.18555-0.40399-0.18555-0.64648 0-0.43013 0.17813-0.78342 0.5332-1.0605 0.35507-0.28002 0.82006-0.41992 1.3945-0.41992zm2.3203 0.085938h1.541l0.72852 2.9492 0.74024-2.9492h1.5371l-1.5293 4.6855h-1.4883l-1.5293-4.6855zm7.0625 1.0391c-0.25981 0-0.4641 0.11773-0.61133 0.35156-0.14722 0.23094-0.2207 0.56809-0.2207 1.0098 0 0.38394 0.072456 0.68694 0.2168 0.91211 0.14434 0.22228 0.34761 0.33398 0.60742 0.33398 0.31466 0 0.54316-0.10567 0.6875-0.31641v-1.9707c-0.14145-0.21362-0.36791-0.32031-0.67969-0.32031zm-5.5332 5.6523h1.4883l1.5293 4.6855h-1.5371l-0.74024-2.9492-0.72852 2.9492h-1.541l1.5293-4.6855zm-3.7539 1.0391c-0.34641 0-0.57789 0.12478-0.69336 0.37305v1.8438c0.12702 0.25981 0.36248 0.39062 0.70312 0.39062 0.46477 0 0.70432-0.40255 0.71875-1.2051v-0.15625c0-0.83139-0.24354-1.2461-0.72852-1.2461zm9.2871 0c-0.25981 0-0.4641 0.11578-0.61133 0.34961-0.14722 0.23094-0.2207 0.56809-0.2207 1.0098 0 0.38394 0.072456 0.68889 0.2168 0.91406 0.14434 0.22228 0.34761 0.33398 0.60742 0.33398 0.31466 0 0.54316-0.10567 0.6875-0.31641v-1.9707c-0.14145-0.21362-0.36791-0.32031-0.67969-0.32031zm1.8926 4.4629c-0.014352 0.025164-0.019557 0.055632-0.035156 0.080078-0.092055 0.14785-0.20572 0.27655-0.33789 0.39062h0.37305v-0.4707z" fill="#654ef0"/>
</svg>
